<svg width="15" height="17" viewBox="0 0 15 17" fill="none" xmlns="http://www.w3.org/2000/svg">
<path d="M6.9158 16.7923L0.541011 10.4175C0.408103 10.2846 0.333436 10.1043 0.333436 9.91634C0.333436 9.72838 0.408103 9.54812 0.541011 9.41521C0.673919 9.2823 0.85418 9.20764 1.04214 9.20764C1.2301 9.20764 1.41036 9.2823 1.54327 9.41521L6.70862 14.5814L6.70862 0.70831C6.70862 0.520455 6.78325 0.340293 6.91608 0.207459C7.04891 0.0746255 7.22908 0 7.41693 0C7.60479 0 7.78495 0.0746255 7.91778 0.207459C8.05062 0.340293 8.12524 0.520455 8.12524 0.70831V14.5814L13.2906 9.41521C13.4235 9.2823 13.6038 9.20764 13.7917 9.20764C13.9797 9.20764 14.1599 9.2823 14.2929 9.41521C14.4258 9.54812 14.5004 9.72838 14.5004 9.91634C14.5004 10.1043 14.4258 10.2846 14.2929 10.4175L7.91806 16.7923C7.85228 16.8581 7.77416 16.9104 7.68817 16.946C7.60219 16.9817 7.51002 17 7.41693 17C7.32385 17 7.23168 16.9817 7.14569 16.946C7.0597 16.9104 6.98159 16.8581 6.9158 16.7923Z" fill="#E31E25"/>
</svg>
