<svg width="15" height="17" viewBox="0 0 15 17" fill="none" xmlns="http://www.w3.org/2000/svg">
<path d="M8.0842 0.207737L14.459 6.58253C14.5919 6.71544 14.6666 6.8957 14.6666 7.08366C14.6666 7.27162 14.5919 7.45188 14.459 7.58479C14.3261 7.7177 14.1458 7.79236 13.9579 7.79236C13.7699 7.79236 13.5896 7.7177 13.4567 7.58479L8.29138 2.41855V16.2917C8.29138 16.4795 8.21675 16.6597 8.08392 16.7925C7.95109 16.9254 7.77092 17 7.58307 17C7.39521 17 7.21505 16.9254 7.08222 16.7925C6.94938 16.6597 6.87476 16.4795 6.87476 16.2917L6.87476 2.41855L1.70941 7.58479C1.5765 7.7177 1.39624 7.79236 1.20828 7.79236C1.02032 7.79236 0.840055 7.7177 0.707147 7.58479C0.57424 7.45188 0.499573 7.27162 0.499573 7.08366C0.499573 6.8957 0.57424 6.71544 0.707147 6.58253L7.08194 0.207737C7.14772 0.141882 7.22584 0.0896358 7.31183 0.0539913C7.39781 0.0183468 7.48998 0 7.58307 0C7.67615 0 7.76832 0.0183468 7.85431 0.0539913C7.9403 0.0896358 8.01841 0.141882 8.0842 0.207737Z" fill="#5CB585"/>
</svg>
